<?xml version="1.0" encoding="utf-8"?>
<!-- Generator: Adobe Illustrator 18.0.0, SVG Export Plug-In . SVG Version: 6.00 Build 0)  -->
<!DOCTYPE svg PUBLIC "-//W3C//DTD SVG 1.1//EN" "http://www.w3.org/Graphics/SVG/1.1/DTD/svg11.dtd">
<svg version="1.1" id="Layer_1" xmlns="http://www.w3.org/2000/svg" xmlns:xlink="http://www.w3.org/1999/xlink" x="0px" y="0px"
	 viewBox="0 0 225.5 115.8" style="enable-background:new 0 0 225.5 115.8;" xml:space="preserve">
<style type="text/css">
	.st0{fill:none;stroke:#000000;stroke-width:1;stroke-linecap:round;stroke-linejoin:round;}
</style>
<path class="st0" d="M204.8,100.1c-2.2-1.2-3.6-2.7-4.7-4.9c-3.1,4.3-6.2,8.5-9.3,12.8c3.3,1.8,6.6,3.6,9.9,5.5
	c-0.5,0.6-0.9,1.3-1.4,1.9c-4-2.2-8-4.4-12-6.6c4-5.5,8-11,12-16.5c-0.4-2.5,0.1-4.6,1.3-6.8c-11.7,4.3-23.4,8.6-35.1,12.9
	c-0.6-6.4-1.1-12.8-1.7-19.2c-6.8,6.2-13.6,12.3-20.4,18.5c-1.2-1.1-2.4-2.1-3.6-3.2c2.8-2.5,5.6-5.1,8.4-7.6
	c-1.9-1.1-3.9-2.1-5.8-3.2c-0.7-6.6-1.5-13.3-2.2-19.9c-6.3,2.4-12.6,4.9-19,7.3c-0.3-0.7-0.7-1.4-1-2.2c6.6-2.5,13.1-5.1,19.7-7.6
	c-0.7-6.6-1.4-13.2-2.2-19.8c0.9-0.1,1.7-0.2,2.6-0.3c0.7,6.4,1.4,12.7,2.1,19.1c7.2-2.8,14.4-5.6,21.7-8.4c0.5,6.3,1.1,12.7,1.6,19
	c3.7-3.4,7.4-6.7,11.1-10.1c1.2,1.1,2.4,2.2,3.7,3.3c-4.7,4.3-9.5,8.6-14.2,12.9c0.5,6,1,12,1.6,18.1c12-4.4,23.9-8.8,35.9-13.3
	c4.3-3.5,10.8-4.2,15.7-1.5c5.9,3.3,7.6,10.5,3.5,16C218.7,101.7,210.7,103.3,204.8,100.1z"/>
<polygon class="st0" points="161.6,55.4 142.6,62.7 144.7,82.2 150,85.1 163.2,73.1 "/>
<polygon class="st0" points="132.2,52.1 132.6,59.3 97,61.1 96.5,54 121.3,52.7 105.3,43.8 106.6,41.7 125.9,52.5 126.1,52.5 
	114.5,28.2 116.9,27.2 128.9,52.3 "/>
<polygon class="st0" points="71.3,24 73.5,43.9 70.9,44.1 68.8,25 49,32.6 0.5,5.9 1.7,3.7 49.2,29.9 68.5,22.4 66,0.7 68.7,0.5 
	71,21.4 88.2,14.7 90.7,10.8 102.9,17.6 100.2,21.9 90.6,16.5 "/>
</svg>
