<?xml version="1.0" encoding="utf-8"?>
<!-- Generator: Adobe Illustrator 18.0.0, SVG Export Plug-In . SVG Version: 6.00 Build 0)  -->
<!DOCTYPE svg PUBLIC "-//W3C//DTD SVG 1.1//EN" "http://www.w3.org/Graphics/SVG/1.1/DTD/svg11.dtd">
<svg version="1.1" id="Layer_1" xmlns="http://www.w3.org/2000/svg" xmlns:xlink="http://www.w3.org/1999/xlink" x="0px" y="0px"
	 viewBox="0 0 175 197" style="enable-background:new 0 0 175 197;" xml:space="preserve">
<style type="text/css">
	.st0{fill:none;stroke:#000000;stroke-width:1;stroke-linecap:round;stroke-linejoin:round;}
</style>
<path class="st0" d="M54,162.8c1.8-1.9,3.7-3.8,5.5-5.7c2.4,0.3,4.9,0.8,7.3,1.3c5-7,9.9-14,14.9-21c-16.1-15.8-31.2-32.4-44.9-50.3
	c-6.9-8.9-13.4-18.1-19.4-27.6C12.6,52,4.6,38.5,1.3,30c1.6-1.3,3.1-2.5,4.7-3.8c9.2,17.9,23.4,38.3,35.7,54.2
	c13.7,12,27.4,24,41.1,36c-8-10.9-15.6-22.1-22.7-33.7c-7.7-12.5-16.8-23.5-27-34.1c-8.8-9.1-22.2-21.4-32.5-28.9
	c3.2-2.5,6.3-5.1,9.5-7.6C20,19.5,33.2,31.7,41.8,40.7C51.7,51,60.7,61.9,68.6,74c17.4,8.9,34.8,17.8,52.3,26.6
	c-7.8-10.8-15-21.8-21.2-33.7c-10.4-19.8-34-46.5-49.7-61.8c2-1.6,4-3.1,5.9-4.7c9.5,5.9,22,19.3,28.9,27.8c24-7.5,48-15,72-22.6
	c0.3,0.9,0.6,1.8,0.8,2.7c-20,6.3-40,12.5-60,18.8c21.5-5.3,43.1-10.6,64.6-15.9c0.2,0.9,0.4,1.8,0.7,2.7
	c-24.9,6.1-49.9,12.2-74.8,18.4c6.8,8.8,12.8,18.1,18.3,27.8c14.4-7.3,28.7-14.6,43.1-21.9c6.2-5.7,12.4-11.4,18.6-17
	c0.6,0.7,1.3,1.3,1.9,2c-3.8,3.5-7.6,6.9-11.4,10.4c5-2.5,9.9-5,14.9-7.6c0.4,0.8,0.8,1.6,1.3,2.4c-7.9,4-15.8,8-23.7,12
	c-12.3,11.3-24.7,22.6-37,33.8c6.8,12.1,14.5,23.3,23.5,33.9c7.5,8.9,20.2,21.7,30.2,28.1c-2.2,1.6-4.4,3.2-6.7,4.8
	c-5.4-2.2-9.4-5.7-13.6-9.5c-19.2-7.8-38.4-15.5-57.6-23.4c6,8.6,12.4,16.8,19.1,24.9c4.6-1.2,8.4-0.5,12.7,1.3
	c5.1,2.2,9,5.7,11.2,10.9c1.9,4.5,2.6,10.9,1.5,15.7c-2.9,2-5.7,4.1-8.6,6.1c-7.9-6.6-15.5-13.6-23-20.7c0.5-0.8,1.1-1.5,1.7-2.2
	c5.6,6.8,14.6,17,21.3,22.8c-2.3,1.2-4.7,2.3-7,3.5C107,161,95.8,151.1,85,140.6c-0.8,1.2-1.7,2.3-2.5,3.5
	c-2.4,5.7-4.8,11.4-7.1,17.1c5.9,2.5,11.5,6.3,14.4,12.4c2.7,5.6,2.7,13.3,0.2,18.9c-2.3,1.3-4.6,2.6-6.9,3.9
	c2-8.4,2.3-18.2-4.4-25.2C72.7,165.1,62,162.4,54,162.8z"/>
</svg>
