<?xml version="1.0" encoding="utf-8"?>
<!-- Generator: Adobe Illustrator 18.0.0, SVG Export Plug-In . SVG Version: 6.00 Build 0)  -->
<!DOCTYPE svg PUBLIC "-//W3C//DTD SVG 1.1//EN" "http://www.w3.org/Graphics/SVG/1.1/DTD/svg11.dtd">
<svg version="1.1" id="Layer_1" xmlns="http://www.w3.org/2000/svg" xmlns:xlink="http://www.w3.org/1999/xlink" x="0px" y="0px"
	 viewBox="0 0 65.6 39.3" style="enable-background:new 0 0 65.6 39.3;" xml:space="preserve">
<style type="text/css">
	.st0{fill:none;stroke:#000000;stroke-width:1;stroke-linecap:round;stroke-linejoin:round;}
</style>
<path class="st0" d="M6.7,17.2c0.1-0.4,0.2-0.8,0.3-1.1c4.6,0.9,11.1,0.4,15.3-2c5.1-3,6.5-8.2,6.2-13.5c1.9,0,3.8,0,5.7,0
	c0.5,2.9-0.3,6.7-1.7,9.2c-1.7,3.1-3.8,4.8-7,6.2C19.8,18.5,12.5,18.1,6.7,17.2z"/>
<path class="st0" d="M65.1,20.9c-0.1,0.4-0.3,0.9-0.4,1.3c-12.3-1-24.6-2.1-36.8-3.1c0.7,6.6-2.6,12.8-8.7,15.6
	C13.5,37.4,6.3,37,0.5,36.1c0.2-0.3,0.3-0.7,0.5-1c4.7,0.8,11.3,0.2,15.6-2.4c5.2-3.1,6.4-8.4,5.9-13.9c0.9,0,1.8,0.1,2.7,0.1
	c-0.1,0-0.2,0-0.3,0c0.1-0.4,0.3-0.8,0.4-1.2c3.4,0.3,6.8,0.6,10.2,0.8c0.1-6.5,2.1-12.9,8.6-16C49.6,0,57.6,0.2,63.1,1.7
	C63,2,62.9,2.3,62.8,2.6c-4.9-0.6-11-0.7-15.5,2.3C42.5,8,40.9,13.7,41.3,19C49.3,19.6,57.2,20.3,65.1,20.9z"/>
<path class="st0" d="M36.7,25c0.7-0.3,1.4-0.5,2-0.8c1.7,2,2.9,4.1,3.5,6.6c0.7,2.7,0.1,5-2.5,6.5c-3.9,2.2-11,1.5-14.8,1
	c0.1-0.3,0.3-0.6,0.4-1c3.3,0.5,9.5,0.8,12.7-1.1c2.2-1.3,2.6-3.3,1.9-5.6C39.2,28.5,38,26.8,36.7,25z"/>
</svg>
