<?xml version="1.0" encoding="utf-8"?>
<!-- Generator: Adobe Illustrator 18.0.0, SVG Export Plug-In . SVG Version: 6.00 Build 0)  -->
<!DOCTYPE svg PUBLIC "-//W3C//DTD SVG 1.1//EN" "http://www.w3.org/Graphics/SVG/1.1/DTD/svg11.dtd">
<svg version="1.1" id="Default" xmlns="http://www.w3.org/2000/svg" xmlns:xlink="http://www.w3.org/1999/xlink" x="0px" y="0px"
	 viewBox="0 0 446.9 441.1" style="enable-background:new 0 0 446.9 441.1;" xml:space="preserve">
<style type="text/css">
	.st0{fill:none;stroke:#000000;stroke-width:1;stroke-linecap:round;stroke-linejoin:round;}
</style>
<line class="st0" x1="52.2" y1="39.9" x2="55.4" y2="43.8"/>
<line class="st0" x1="52.7" y1="40.9" x2="49.9" y2="37"/>
<line class="st0" x1="184.7" y1="42.1" x2="183.3" y2="38"/>
<path class="st0" d="M153,15.1c1.6,0.6,3.1,1.1,4.7,1.7"/>
<path class="st0" d="M182.1,38.5c0.4-0.2,0.8-0.3,1.2-0.5"/>
<path class="st0" d="M157.6,16.8c-0.4,0.8-0.8,1.7-1.2,2.5"/>
<path class="st0" d="M153,15.1c1.6,0.6,3.1,1.1,4.7,1.7"/>
<path class="st0" d="M152.4,16.3c0.2-0.4,0.4-0.8,0.6-1.2"/>
<path class="st0" d="M428.1,222.4c1.8-7.4,3.6-14.8,5.4-22.2"/>
<path class="st0" d="M446.4,209.9c-1.7,7.4-3.4,14.9-5.2,22.3"/>
<line class="st0" x1="446.4" y1="209.9" x2="433.5" y2="200.3"/>
<path class="st0" d="M283,87.6c-7.5,3.2-14.9,6.4-22.4,9.6"/>
<path class="st0" d="M256.7,94.2c7.5-3.2,15-6.4,22.4-9.6"/>
<path class="st0" d="M246.7,60.4c-2.7,6.7-5.5,13.5-8.2,20.2"/>
<path class="st0" d="M225.2,70.7c2.8-6.7,5.6-13.4,8.4-20.1"/>
<line class="st0" x1="283" y1="87.6" x2="279.1" y2="84.7"/>
<line class="st0" x1="246.7" y1="60.4" x2="233.5" y2="50.6"/>
<path class="st0" d="M256.7,94.2c-6.1-4.5-12.1-9-18.2-13.6"/>
<line class="st0" x1="285.3" y1="266.4" x2="274.9" y2="264.5"/>
<line class="st0" x1="274.9" y1="264.5" x2="290.3" y2="252.6"/>
<line class="st0" x1="290.3" y1="252.6" x2="281" y2="238.9"/>
<line class="st0" x1="281" y1="238.9" x2="306.3" y2="144.7"/>
<line class="st0" x1="306.3" y1="144.7" x2="281.7" y2="158.1"/>
<line class="st0" x1="281.7" y1="158.1" x2="266" y2="214.9"/>
<line class="st0" x1="266" y1="214.9" x2="270.6" y2="216.2"/>
<line class="st0" x1="270.6" y1="216.2" x2="285.7" y2="161.2"/>
<line class="st0" x1="285.7" y1="161.2" x2="299" y2="154"/>
<line class="st0" x1="299" y1="154" x2="276.3" y2="238.4"/>
<line class="st0" x1="276.3" y1="238.4" x2="268.9" y2="243.3"/>
<line class="st0" x1="268.9" y1="243.3" x2="273.4" y2="249.9"/>
<line class="st0" x1="273.4" y1="249.9" x2="264.5" y2="256.7"/>
<line class="st0" x1="264.5" y1="256.7" x2="269.9" y2="263.5"/>
<line class="st0" x1="269.9" y1="263.5" x2="264.8" y2="262.6"/>
<line class="st0" x1="264.8" y1="262.6" x2="214.2" y2="439.3"/>
<line class="st0" x1="214.2" y1="439.3" x2="218.9" y2="440.6"/>
<line class="st0" x1="218.9" y1="440.6" x2="268.2" y2="267.9"/>
<line class="st0" x1="268.2" y1="267.9" x2="281.7" y2="270.4"/>
<line class="st0" x1="281.7" y1="270.4" x2="297.5" y2="316.1"/>
<line class="st0" x1="297.5" y1="316.1" x2="301.9" y2="314.6"/>
<line class="st0" x1="301.9" y1="314.6" x2="285.3" y2="266.4"/>
<line class="st0" x1="343.7" y1="286.8" x2="321.8" y2="280.6"/>
<line class="st0" x1="321.8" y1="280.6" x2="339" y2="218"/>
<line class="st0" x1="339" y1="218" x2="373.5" y2="192.2"/>
<line class="st0" x1="373.5" y1="192.2" x2="370.6" y2="188.5"/>
<line class="st0" x1="370.6" y1="188.5" x2="335" y2="215.2"/>
<line class="st0" x1="335" y1="215.2" x2="316" y2="283.8"/>
<line class="st0" x1="316" y1="283.8" x2="342.5" y2="291.3"/>
<line class="st0" x1="342.5" y1="291.3" x2="343.7" y2="286.8"/>
<line class="st0" x1="184.2" y1="220.7" x2="182.3" y2="235.4"/>
<line class="st0" x1="182.3" y1="235.4" x2="256.1" y2="259.3"/>
<line class="st0" x1="256.1" y1="259.3" x2="215.4" y2="202.6"/>
<line class="st0" x1="215.4" y1="202.6" x2="254.2" y2="179.8"/>
<line class="st0" x1="254.2" y1="179.8" x2="251.7" y2="175.9"/>
<line class="st0" x1="251.7" y1="175.9" x2="208.5" y2="201.2"/>
<line class="st0" x1="208.5" y1="201.2" x2="244" y2="250.5"/>
<line class="st0" x1="244" y1="250.5" x2="187.5" y2="232.2"/>
<line class="st0" x1="187.5" y1="232.2" x2="190.3" y2="210.9"/>
<line class="st0" x1="190.3" y1="210.9" x2="170.8" y2="224.1"/>
<line class="st0" x1="170.8" y1="224.1" x2="173.5" y2="227.9"/>
<line class="st0" x1="173.5" y1="227.9" x2="184.2" y2="220.7"/>
<line class="st0" x1="97.3" y1="95.5" x2="101.9" y2="97"/>
<line class="st0" x1="101.9" y1="97" x2="109.6" y2="73.2"/>
<line class="st0" x1="109.6" y1="73.2" x2="135.3" y2="100.3"/>
<line class="st0" x1="135.3" y1="100.3" x2="130.5" y2="103.5"/>
<line class="st0" x1="130.5" y1="103.5" x2="131.2" y2="99.4"/>
<line class="st0" x1="131.2" y1="99.4" x2="126.5" y2="98.6"/>
<line class="st0" x1="126.5" y1="98.6" x2="124" y2="113.7"/>
<line class="st0" x1="124" y1="113.7" x2="142.4" y2="101.1"/>
<line class="st0" x1="142.4" y1="101.1" x2="138.9" y2="97.3"/>
<line class="st0" x1="138.9" y1="97.3" x2="160.3" y2="106.2"/>
<line class="st0" x1="160.3" y1="106.2" x2="165.2" y2="94.9"/>
<line class="st0" x1="165.2" y1="94.9" x2="160.6" y2="93"/>
<line class="st0" x1="160.6" y1="93" x2="174.4" y2="84.7"/>
<line class="st0" x1="174.4" y1="84.7" x2="167.6" y2="74.3"/>
<line class="st0" x1="167.6" y1="74.3" x2="145" y2="87.9"/>
<line class="st0" x1="145" y1="87.9" x2="151.4" y2="64.6"/>
<line class="st0" x1="151.4" y1="64.6" x2="186" y2="41.4"/>
<line class="st0" x1="152.4" y1="16.3" x2="135.6" y2="70.6"/>
<line class="st0" x1="135.6" y1="70.6" x2="121.7" y2="79.2"/>
<line class="st0" x1="121.7" y1="79.2" x2="107.5" y2="64.2"/>
<line class="st0" x1="107.5" y1="64.2" x2="97.3" y2="95.5"/>
<line class="st0" x1="54.2" y1="183.7" x2="31.4" y2="253.5"/>
<line class="st0" x1="31.4" y1="253.5" x2="21.5" y2="260.7"/>
<line class="st0" x1="20.6" y1="267.2" x2="35.6" y2="256.4"/>
<line class="st0" x1="35.6" y1="256.4" x2="57.4" y2="189.6"/>
<line class="st0" x1="57.4" y1="189.6" x2="70.4" y2="193.8"/>
<line class="st0" x1="70.4" y1="193.8" x2="90.4" y2="132.4"/>
<line class="st0" x1="90.4" y1="132.4" x2="67.2" y2="148.3"/>
<line class="st0" x1="67.2" y1="148.3" x2="70" y2="152.1"/>
<line class="st0" x1="70" y1="152.1" x2="81.4" y2="144.3"/>
<line class="st0" x1="81.4" y1="144.3" x2="67.2" y2="187.8"/>
<line class="st0" x1="67.2" y1="187.8" x2="54.2" y2="183.7"/>
<line class="st0" x1="56" y1="417.6" x2="58.1" y2="420"/>
<line class="st0" x1="58.1" y1="420" x2="68.8" y2="410.9"/>
<line class="st0" x1="68.8" y1="410.9" x2="66.6" y2="408.5"/>
<line class="st0" x1="66.6" y1="408.5" x2="56" y2="417.6"/>
<line class="st0" x1="142.8" y1="215.6" x2="117.6" y2="229.8"/>
<line class="st0" x1="117.6" y1="229.8" x2="125.8" y2="243.4"/>
<line class="st0" x1="125.8" y1="243.4" x2="150.9" y2="229"/>
<line class="st0" x1="150.9" y1="229" x2="142.8" y2="215.6"/>
<line class="st0" x1="95.6" y1="261.1" x2="110.2" y2="207.1"/>
<line class="st0" x1="110.2" y1="207.1" x2="107.1" y2="206.3"/>
<line class="st0" x1="107.1" y1="206.3" x2="109.3" y2="204.6"/>
<line class="st0" x1="109.3" y1="204.6" x2="125" y2="207.2"/>
<line class="st0" x1="125" y1="207.2" x2="124.8" y2="208"/>
<line class="st0" x1="124.8" y1="208" x2="140.4" y2="211.7"/>
<line class="st0" x1="140.4" y1="211.7" x2="147.5" y2="183.7"/>
<line class="st0" x1="147.5" y1="183.7" x2="144" y2="182.9"/>
<line class="st0" x1="144" y1="182.9" x2="176.6" y2="159.3"/>
<line class="st0" x1="176.6" y1="159.3" x2="155.9" y2="129.3"/>
<line class="st0" x1="155.9" y1="129.3" x2="160.5" y2="131.6"/>
<line class="st0" x1="160.5" y1="131.6" x2="164" y2="125.2"/>
<line class="st0" x1="164" y1="125.2" x2="152.7" y2="119.4"/>
<line class="st0" x1="152.7" y1="119.4" x2="149.3" y2="125.8"/>
<line class="st0" x1="149.3" y1="125.8" x2="151" y2="126.7"/>
<line class="st0" x1="151" y1="126.7" x2="149.2" y2="127.8"/>
<line class="st0" x1="149.2" y1="127.8" x2="170.1" y2="158.2"/>
<line class="st0" x1="170.1" y1="158.2" x2="138" y2="181.4"/>
<line class="st0" x1="138" y1="181.4" x2="131.9" y2="179.9"/>
<line class="st0" x1="131.9" y1="179.9" x2="126.2" y2="202.7"/>
<line class="st0" x1="126.2" y1="202.7" x2="108" y2="199.6"/>
<line class="st0" x1="108" y1="199.6" x2="101.2" y2="204.8"/>
<line class="st0" x1="101.2" y1="204.8" x2="94.6" y2="203.1"/>
<line class="st0" x1="94.6" y1="203.1" x2="92.3" y2="211.5"/>
<line class="st0" x1="92.3" y1="211.5" x2="51.9" y2="242.3"/>
<line class="st0" x1="51.9" y1="242.3" x2="3.4" y2="390.4"/>
<line class="st0" x1="0.5" y1="411.1" x2="1.7" y2="411.5"/>
<line class="st0" x1="1.7" y1="411.5" x2="38" y2="300.4"/>
<line class="st0" x1="38" y1="300.4" x2="44.4" y2="311.1"/>
<line class="st0" x1="44.4" y1="311.1" x2="70.1" y2="296.4"/>
<line class="st0" x1="70.1" y1="296.4" x2="61.9" y2="282.8"/>
<line class="st0" x1="61.9" y1="282.8" x2="39.6" y2="295.5"/>
<line class="st0" x1="39.6" y1="295.5" x2="56.1" y2="245.1"/>
<line class="st0" x1="56.1" y1="245.1" x2="90.3" y2="219.1"/>
<line class="st0" x1="90.3" y1="219.1" x2="79.6" y2="258"/>
<line class="st0" x1="79.6" y1="258" x2="94.4" y2="261.7"/>
<line class="st0" x1="94.4" y1="261.7" x2="80.6" y2="269.6"/>
<line class="st0" x1="80.6" y1="269.6" x2="88.8" y2="283.2"/>
<line class="st0" x1="88.8" y1="283.2" x2="114.2" y2="268.6"/>
<line class="st0" x1="114.2" y1="268.6" x2="106.1" y2="255.1"/>
<line class="st0" x1="106.1" y1="255.1" x2="95.6" y2="261.1"/>
<line class="st0" x1="254.4" y1="285.5" x2="245.1" y2="272.9"/>
<line class="st0" x1="245.1" y1="272.9" x2="136.8" y2="350.3"/>
<line class="st0" x1="136.8" y1="350.3" x2="118" y2="424.1"/>
<line class="st0" x1="118" y1="424.1" x2="133.8" y2="427.8"/>
<line class="st0" x1="133.8" y1="427.8" x2="151.1" y2="359.6"/>
<line class="st0" x1="151.1" y1="359.6" x2="241.6" y2="294.7"/>
<line class="st0" x1="241.6" y1="294.7" x2="200" y2="436.8"/>
<line class="st0" x1="200" y1="436.8" x2="204.6" y2="438.1"/>
<line class="st0" x1="204.6" y1="438.1" x2="247.8" y2="290.2"/>
<line class="st0" x1="247.8" y1="290.2" x2="254.4" y2="285.5"/>
<line class="st0" x1="320.5" y1="377.1" x2="308.1" y2="331.6"/>
<line class="st0" x1="308.1" y1="331.6" x2="310.2" y2="333.2"/>
<line class="st0" x1="310.2" y1="333.2" x2="313" y2="329.5"/>
<line class="st0" x1="313" y1="329.5" x2="299.9" y2="319.3"/>
<line class="st0" x1="299.9" y1="319.3" x2="315.2" y2="375.6"/>
<line class="st0" x1="315.2" y1="375.6" x2="309.6" y2="374"/>
<line class="st0" x1="309.6" y1="374" x2="291.5" y2="437.8"/>
<line class="st0" x1="310.2" y1="429.5" x2="324.7" y2="378.3"/>
<line class="st0" x1="324.7" y1="378.3" x2="320.5" y2="377.1"/>
<line class="st0" x1="428.1" y1="222.4" x2="378.4" y2="399.4"/>
<line class="st0" x1="338.4" y1="417" x2="325.9" y2="388.8"/>
<line class="st0" x1="325.9" y1="388.8" x2="315.3" y2="427.3"/>
<path class="st0" d="M315.3,427.3c-1.7,0.7-3.4,1.5-5.1,2.2"/>
<path class="st0" d="M378.4,399.4c-13.3,5.9-26.6,11.8-40,17.6"/>
<line class="st0" x1="223.6" y1="129.4" x2="227.3" y2="117.4"/>
<line class="st0" x1="227.3" y1="117.4" x2="260.7" y2="97.2"/>
<line class="st0" x1="225.2" y1="70.7" x2="208.6" y2="124.9"/>
<line class="st0" x1="208.6" y1="124.9" x2="223.6" y2="129.4"/>
<line class="st0" x1="50.4" y1="53.1" x2="93.9" y2="71.8"/>
<line class="st0" x1="93.9" y1="71.8" x2="100.4" y2="50.5"/>
<line class="st0" x1="100.4" y1="50.5" x2="102" y2="49.2"/>
<line class="st0" x1="102" y1="49.2" x2="101.1" y2="48.1"/>
<line class="st0" x1="101.1" y1="48.1" x2="113.1" y2="8.5"/>
<line class="st0" x1="113.1" y1="8.5" x2="108.5" y2="7.2"/>
<line class="st0" x1="108.5" y1="7.2" x2="97.3" y2="43.9"/>
<line class="st0" x1="97.3" y1="43.9" x2="80.8" y2="25.4"/>
<line class="st0" x1="80.8" y1="25.4" x2="101" y2="10.6"/>
<line class="st0" x1="300.5" y1="319.8" x2="301.1" y2="314.9"/>
<line class="st0" x1="22.2" y1="255.6" x2="27.6" y2="256.3"/>
<line class="st0" x1="252.7" y1="283.3" x2="258.7" y2="284"/>
<line class="st0" x1="55.4" y1="43.8" x2="70.7" y2="32.7"/>
<line class="st0" x1="70.7" y1="32.7" x2="92.3" y2="57"/>
<line class="st0" x1="92.3" y1="57" x2="93.7" y2="55.9"/>
<line class="st0" x1="93.7" y1="55.9" x2="90.8" y2="65.4"/>
<line class="st0" x1="90.8" y1="65.4" x2="51.1" y2="48.3"/>
<line class="st0" x1="52.2" y1="39.9" x2="55.4" y2="43.8"/>
<line class="st0" x1="91.9" y1="0.9" x2="46.8" y2="33.6"/>
<line class="st0" x1="182.1" y1="38.5" x2="147.3" y2="61.8"/>
<line class="st0" x1="147.3" y1="61.8" x2="139.1" y2="91.5"/>
<line class="st0" x1="139.1" y1="91.5" x2="135.4" y2="93.7"/>
<line class="st0" x1="135.4" y1="93.7" x2="125" y2="82.7"/>
<line class="st0" x1="125" y1="82.7" x2="139.7" y2="73.5"/>
<line class="st0" x1="139.7" y1="73.5" x2="156.4" y2="19.3"/>
<line class="st0" x1="91.2" y1="0.5" x2="101" y2="10.6"/>
</svg>
