<?xml version="1.0" encoding="utf-8"?>
<!-- Generator: Adobe Illustrator 18.0.0, SVG Export Plug-In . SVG Version: 6.00 Build 0)  -->
<!DOCTYPE svg PUBLIC "-//W3C//DTD SVG 1.1//EN" "http://www.w3.org/Graphics/SVG/1.1/DTD/svg11.dtd">
<svg version="1.1" id="Layer_1" xmlns="http://www.w3.org/2000/svg" xmlns:xlink="http://www.w3.org/1999/xlink" x="0px" y="0px"
	 viewBox="0 0 171.6 114.7" style="enable-background:new 0 0 171.6 114.7;" xml:space="preserve">
<style type="text/css">
	.st0{fill:none;stroke:#000000;stroke-width:1;stroke-linecap:round;stroke-linejoin:round;}
</style>
<path class="st0" d="M99.1,87.4c-0.5,0.9-1.1,1.8-1.6,2.6c-4.1-1.5-8.2-2.6-12.4-3.3c-0.9,4.5-2,8.8-3.6,13c-1.2,3-3.9,9.5-8.3,9.9
	c-4.6-1.1-9.2-2.3-13.8-3.4c-3.3-3.1-8.3-9.3-8.9-14.3c-8.3,4.6-17.6,13.4-21.7,22.3c-4.9-1.3-9.9-2.5-14.8-3.8
	c7.6-15.5,20.3-25.2,37.3-28.5c8.2-1.6,16.1-1.5,24.3-0.5C82.6,82.3,92.5,84.5,99.1,87.4z"/>
<path class="st0" d="M65.6,99.9c2-3.5,5.1-9.9,5.6-14.1c-3.9,0.3-7.7,0.9-11.4,2.1C61,91.4,63.2,97,65.6,99.9z"/>
<path class="st0" d="M109.8,90.9c-2.2-0.8-4.4-1.6-6.6-2.4c2.2-6.8,3.7-13.7,4.6-20.8c-24.2,18.2-57,10.1-80.6,0.2
	c-11-4.6-21.4-12.1-25.2-24.5C-1.5,32.4,1.5,18,7.3,8.5c15.1,3.2,32,9.1,43.9,20.2c12.4,11.5,17.7,27.9,13.6,44.5
	c19-0.3,34.3-10.7,43.9-26.5c-0.6-13.9-4-33.2-9.7-46.2c2.4,0.8,4.9,1.7,7.3,2.5c4.6,13.5,7.6,27,8.7,41.2c3.2,1.2,6.3,2.5,9.5,3.7
	c-2.6,4.7-5.6,9-9.2,13C114.9,69.4,113.2,82.8,109.8,90.9z"/>
<path class="st0" d="M23.1,16.6c-4.2,10.3-8.8,23.3-3.6,35c5.1,11.7,18.1,17,29,19.6c1.6,0.4,3.3,0.7,4.9,1
	C56.5,47.4,47.2,26.6,23.1,16.6z"/>
<path class="st0" d="M146,16.4c4.4,1.3,8.9,2.5,13.3,3.8c1,6.5,5,15.6,11.7,18.8c-2.7,1.4-6.6,1-9.2,0c-3.1-1.2-5.3-3.2-7.4-5.7
	C150.2,28.2,148,22.5,146,16.4z"/>
</svg>
