<?xml version="1.0" encoding="utf-8"?>
<!-- Generator: Adobe Illustrator 18.0.0, SVG Export Plug-In . SVG Version: 6.00 Build 0)  -->
<!DOCTYPE svg PUBLIC "-//W3C//DTD SVG 1.1//EN" "http://www.w3.org/Graphics/SVG/1.1/DTD/svg11.dtd">
<svg version="1.1" id="Layer_1" xmlns="http://www.w3.org/2000/svg" xmlns:xlink="http://www.w3.org/1999/xlink" x="0px" y="0px"
	 viewBox="0 0 104.3 122.8" style="enable-background:new 0 0 104.3 122.8;" xml:space="preserve">
<style type="text/css">
	.st0{fill:none;stroke:#000000;stroke-width:1;stroke-linecap:round;stroke-linejoin:round;}
</style>
<polygon class="st0" points="51,69.9 50.5,80.9 45.8,81.1 46,75.7 26.8,98.2 53.6,79 54.3,66 "/>
<path class="st0" d="M63.7,58.9c-0.9,0.2-1.7,0.3-2.5,0.2c-0.3,0-0.5-0.2-0.8-0.3c-0.4,0.4-0.8,0.9-1.1,1.3
	c-0.3,5.1-0.5,10.3-0.8,15.4c1.5-1.1,3-2.2,4.5-3.2C63.2,67.9,63.5,63.4,63.7,58.9z"/>
<path class="st0" d="M96.6,55.7c-0.7-0.1-1.2-0.4-1.8-0.7c-3.1,2.2-6.2,4.4-9.3,6.6c-1.1,17.3-2.1,34.5-3.2,51.8
	c-1.5,0.1-3,0.2-4.5,0.2c1-16.2,1.9-32.4,2.9-48.6c-1.7,1.2-3.4,2.5-5.2,3.7c-0.6,10.6-1.2,21.3-1.9,31.9c-1.5,0.1-3.1,0.1-4.6,0.2
	c0.5-9.6,1.1-19.1,1.6-28.7c-1.1,0.8-2.1,1.5-3.2,2.3c-0.3,5.3-0.6,10.6-0.9,15.9c-1.5,0.1-3.1,0.1-4.6,0.2
	c0.2-4.2,0.5-8.5,0.7-12.7c-1.5,1.1-3,2.1-4.5,3.2c-0.1,1.2-0.1,2.5-0.2,3.7c-1.6,0.1-3.1,0.1-4.7,0.2c0-0.1,0-0.3,0-0.4
	c-11.1,7.9-22.2,15.9-33.3,23.8c0.3,0.9,0.3,1.8,0.1,2.7c-0.7,3.3-4.1,5.6-7.5,5.2c-0.9-0.1-1.7-0.4-2.5-0.9
	c-3.4,2.4-6.8,4.9-10.2,7.3c2.8-3.2,5.5-6.5,8.3-9.7c-0.5-1.1-0.7-2.2-0.4-3.4c0.7-3.3,4.1-5.7,7.5-5.2c0.1,0,0.2,0.1,0.2,0.1
	c10.3-12,20.5-24.1,30.8-36.1c0.6-12.9,1.2-25.9,1.8-38.8c1.6,0,3.2-0.1,4.8-0.1c-0.5,11-1.1,22.1-1.6,33.1c1.1-1.3,2.2-2.6,3.3-3.9
	c0.6-12.5,1.3-25,1.9-37.6c1.6,0,3.2-0.1,4.8-0.1c-0.5,8.9-0.9,17.8-1.4,26.7c1.3-0.7,2.6-1.1,4.1-0.9c0.1,0,0.2,0.1,0.3,0.1
	c0.6-10.8,1.2-21.6,1.7-32.5c1.6,0,3.2-0.1,4.8-0.1c-0.7,12.7-1.4,25.5-2.1,38.2c0,0.4,0.1,0.9,0,1.3c0,0,0,0,0,0.1
	c-0.3,5-0.6,10-0.8,15c1.1-0.8,2.1-1.5,3.2-2.3c1.1-20.2,2.3-40.5,3.4-60.7c1.6,0,3.2-0.1,4.7-0.1C78.1,24.9,77,44,75.9,63.1
	c1.7-1.2,3.4-2.5,5.2-3.7c1.2-19.8,2.4-39.5,3.6-59.3c1.6,0,3.2-0.1,4.7-0.1c-1.1,18.7-2.3,37.3-3.4,56c2.1-1.5,4.2-3,6.2-4.5
	c-0.2-1-0.3-1.9,0-2.8c0.8-3.3,4.1-5.8,7.5-5.2c3.4,0.5,5.3,3.8,4.5,7C103.3,53.7,100,56.2,96.6,55.7z"/>
<path class="st0" d="M36.9,44.1c-0.9,3.3-4.1,5.6-7.5,5.1c-3.5-0.5-5.6-3.7-4.9-7.2c0.8-3.4,4.1-5.9,7.6-5.3
	c2.5,0.4,4.4,2.2,4.9,4.6c0.1-2,0.2-4.1,0.3-6.1c1.6,0,3.2-0.1,4.8-0.1c-0.3,7.1-0.6,14.3-1,21.4c-1.6,0.1-3.2,0.1-4.7,0.2
	C36.5,52.5,36.7,48.3,36.9,44.1z"/>
</svg>
