<?xml version="1.0" encoding="utf-8"?>
<!-- Generator: Adobe Illustrator 18.0.0, SVG Export Plug-In . SVG Version: 6.00 Build 0)  -->
<!DOCTYPE svg PUBLIC "-//W3C//DTD SVG 1.1//EN" "http://www.w3.org/Graphics/SVG/1.1/DTD/svg11.dtd">
<svg version="1.1" id="Layer_1" xmlns="http://www.w3.org/2000/svg" xmlns:xlink="http://www.w3.org/1999/xlink" x="0px" y="0px"
	 viewBox="0 0 92.2 105.6" style="enable-background:new 0 0 92.2 105.6;" xml:space="preserve">
<style type="text/css">
	.st0{fill:none;stroke:#000000;stroke-width:1;stroke-linecap:round;stroke-linejoin:round;}
</style>
<path class="st0" d="M48.4,101.4c-1.3,1.4-2.7,2.8-4,4.2c-6.4-5-12.9-10.1-19.3-15.1c0.5-1,1.1-2,1.6-3c-6.1-0.9-11-2.9-15.8-6.8
	c-13.3-10.8-14.5-29.8-3-42.4c11.6-12.8,32.1-14.5,45.4-3.4c0.4,0.3,0.8,0.7,1.1,1.1c2.4-4.5,4.9-9.1,7.3-13.6
	c-4.1-3.5-8.3-6.9-12.4-10.4c3.6-4,7.3-8,10.9-12C70.9,9,81.5,17.9,92.2,26.8c-3.9,3.9-7.8,7.9-11.7,11.8c-2.9-2.5-5.9-4.9-8.8-7.4
	c-3.1,5.6-6.2,11.2-9.3,16.8c3.5,10.4,0.7,21.6-6.7,29.5c-4.1,4.4-8.7,7.1-14.5,8.8c-1.2,2.1-2.3,4.2-3.5,6.3
	C41.2,95.6,44.8,98.5,48.4,101.4z"/>
<path class="st0" d="M39,49.6c-4.7-3.9-11.9-3.3-16,1.2c-4.1,4.4-3.7,11.2,1,15c4.7,3.8,11.8,3.3,15.9-1.1
	C44,60.2,43.7,53.5,39,49.6z"/>
</svg>
