<?xml version="1.0" encoding="utf-8"?>
<!-- Generator: Adobe Illustrator 18.0.0, SVG Export Plug-In . SVG Version: 6.00 Build 0)  -->
<!DOCTYPE svg PUBLIC "-//W3C//DTD SVG 1.1//EN" "http://www.w3.org/Graphics/SVG/1.1/DTD/svg11.dtd">
<svg version="1.1" id="Default" xmlns="http://www.w3.org/2000/svg" xmlns:xlink="http://www.w3.org/1999/xlink" x="0px" y="0px"
	 viewBox="0 0 359.8 308.6" style="enable-background:new 0 0 359.8 308.6;" xml:space="preserve">
<style type="text/css">
	.st0{fill:none;stroke:#000000;stroke-width:1;stroke-linecap:round;stroke-linejoin:round;}
</style>
<line class="st0" x1="191.8" y1="260.2" x2="136.3" y2="288.8"/>
<line class="st0" x1="136.3" y1="288.8" x2="132.8" y2="284.5"/>
<line class="st0" x1="132.8" y1="284.5" x2="110.7" y2="296"/>
<line class="st0" x1="136.3" y1="308.1" x2="147.4" y2="302.6"/>
<line class="st0" x1="147.4" y1="302.6" x2="142.4" y2="296.4"/>
<line class="st0" x1="142.4" y1="296.4" x2="197.9" y2="268.2"/>
<line class="st0" x1="197.9" y1="268.2" x2="191.8" y2="260.2"/>
<path class="st0" d="M275.1,142.8c-13.7-20.2-38.6-31-62.5-28.7c-24.4,2.4-46.3,18.4-50.9,43.7"/>
<path class="st0" d="M161.6,157.8c-17.2-12.1-41.6-16.2-61-5.6C80.1,163.6,73.7,187,83,207.9c8.8,19.9,29.3,33.2,50.5,35.1
	c21.9,2,44-8.4,50.4-31.1"/>
<path class="st0" d="M183.9,211.9c21.8,17.2,54.2,20.5,77.9,4.4c24.9-17,30-48.8,13.3-73.5"/>
<path class="st0" d="M315.4,97.3c-13.4,7.6-18.6,24.4-9.3,37.5c8.8,12.4,26.4,15,39.1,7.6c13.4-7.6,18.6-24.4,9.3-37.4
	C345.8,92.6,328.2,90,315.4,97.3z"/>
<line class="st0" x1="200.1" y1="69.3" x2="207.1" y2="79.4"/>
<line class="st0" x1="207.1" y1="79.4" x2="316.2" y2="11.6"/>
<line class="st0" x1="316.2" y1="11.6" x2="309.4" y2="0.5"/>
<line class="st0" x1="309.4" y1="0.5" x2="200.1" y2="69.3"/>
<line class="st0" x1="66.7" y1="275.1" x2="15.7" y2="187.8"/>
<line class="st0" x1="15.7" y1="187.8" x2="0.5" y2="193.3"/>
<line class="st0" x1="0.5" y1="193.3" x2="42.2" y2="263.5"/>
<path class="st0" d="M105.6,162.3c17.6-10.7,41.1-5.4,55.3,8"/>
<path class="st0" d="M160.9,170.4c0.4,6,1.7,11.6,4,17.2c1.1,2.8,2.5,5.4,4,7.9c0.8,1.3,1.6,2.5,2.4,3.7c0.9,1.2,1.9,2.2,2.9,3.4"/>
<path class="st0" d="M174.2,202.6c-1.1,14.1-10.2,24.7-23.3,29.1c-12.7,4.3-26.9,2-38.2-4.5c-11.3-6.5-20.5-17.7-22.6-31
	c-2.2-13.7,3.6-26.6,15.6-33.9"/>
<path class="st0" d="M209,179.7c-5.1-7-3-16.3,4.9-20.2c7.2-3.6,16.6-1.2,21.3,5.3c5.1,7,3,16.3-4.9,20.2
	C223.1,188.7,213.7,186.3,209,179.7z"/>
<path class="st0" d="M338.4,133.2c-7.3,4-17.3,2.3-22.1-4.8c-5.1-7.5-1.8-17,5.8-21.1c7.3-4,17.3-2.3,22.1,4.8
	C349.2,119.6,346,129,338.4,133.2z"/>
</svg>
