<?xml version="1.0" encoding="utf-8"?>
<!-- Generator: Adobe Illustrator 18.0.0, SVG Export Plug-In . SVG Version: 6.00 Build 0)  -->
<!DOCTYPE svg PUBLIC "-//W3C//DTD SVG 1.1//EN" "http://www.w3.org/Graphics/SVG/1.1/DTD/svg11.dtd">
<svg version="1.1" id="Layer_1" xmlns="http://www.w3.org/2000/svg" xmlns:xlink="http://www.w3.org/1999/xlink" x="0px" y="0px"
	 viewBox="0 0 215.1 166" style="enable-background:new 0 0 215.1 166;" xml:space="preserve">
<style type="text/css">
	.st0{fill:none;stroke:#000000;stroke-width:1;stroke-linecap:round;stroke-linejoin:round;}
</style>
<polygon class="st0" points="0,55.5 110.8,166 115.9,160.8 5.1,50.6 "/>
<path class="st0" d="M209,65.7c-6.5-5.2-16.2-4.6-21.6,2c-2.7,3.3-3.6,7.4-3.1,11.6c-17.2,6.3-34.4,12.6-51.6,18.8
	c0.1-0.2,0.2-0.4,0.3-0.6C122.5,91.3,112,85,101.4,78.7c-2.1-7.6-4.3-15.2-6.4-22.9c14.7,5.9,29.5,11.9,44.2,17.8
	c0.8-2.2,1.7-4.4,2.5-6.6C125.4,60.5,109,54,92.6,47.4C91,42,89.5,36.6,87.9,31.1c0.2-0.1,0.4-0.3,0.6-0.4
	c20.7,4.9,41.5,9.8,62.2,14.7c0.5-2.2,1-4.5,1.5-6.7c-19.7-4.7-39.5-9.3-59.2-14c1.8-4.2,1.7-8.9-0.4-13c22.9,1.7,45.7,3.4,68.6,5.1
	c0.1-2.3,0.2-4.6,0.4-6.9C136.1,8,110.7,6.1,85.4,4.3c-3.9-2-8.5-2.3-12.7-0.9C58,2.2,43.3,1.1,28.6,0c-0.2,2.3-0.4,4.6-0.6,6.8
	c12.1,0.9,24.3,1.8,36.4,2.7c-1.7,2.4-2.5,4.8-2.8,7.7C49.4,14.3,37.2,11.4,25,8.5c-0.6,2.2-1.2,4.5-1.7,6.7
	c13.2,3.1,26.5,6.2,39.7,9.4c1,2.5,2.5,4.4,4.6,6.1c3.9,3.2,9,4.4,14,3.3c0.9,3.4,1.9,6.7,2.8,10.1c-21-8.4-42-16.8-63-25.2
	c-0.9,2.1-1.8,4.2-2.7,6.3C41.3,34.3,64,43.4,86.7,52.5c2,7,3.9,14,5.9,20.9C67,58.2,41.5,43,15.9,27.7c-1.2,2-2.5,3.9-3.7,5.9
	c27.7,16.6,55.4,33.1,83.1,49.7c1.6,5.6,3.2,11.1,4.7,16.7c-2.5,0.7-4.6,1.8-6.6,3.6C65.2,81.9,37,60.2,8.8,38.4
	c-1.5,1.8-3,3.6-4.4,5.5c28.3,21.8,56.6,43.6,84.9,65.5c-3,6.9-1,15,4.8,19.8c6.1,5,15.1,5.3,21.2,0.2c2.1,1.6,4.1,3.1,6.2,4.7
	c1.5-1.9,2.9-3.8,4.4-5.7c-2-1.5-4.1-3.1-6.1-4.6c2.1-4.2,2.2-9,0.5-13.4c22.3-8.2,44.6-16.3,66.9-24.5c0.8,1.3,1.8,2.4,3,3.4
	c6.6,5.3,16.4,4.8,21.8-2C217.3,80.6,215.5,70.9,209,65.7z"/>
</svg>
