<?xml version="1.0" encoding="utf-8"?>
<!-- Generator: Adobe Illustrator 18.0.0, SVG Export Plug-In . SVG Version: 6.00 Build 0)  -->
<!DOCTYPE svg PUBLIC "-//W3C//DTD SVG 1.1//EN" "http://www.w3.org/Graphics/SVG/1.1/DTD/svg11.dtd">
<svg version="1.1" id="Layer_1" xmlns="http://www.w3.org/2000/svg" xmlns:xlink="http://www.w3.org/1999/xlink" x="0px" y="0px"
	 viewBox="0 0 57.1 52.8" style="enable-background:new 0 0 57.1 52.8;" xml:space="preserve">
<style type="text/css">
	.st0{fill:none;stroke:#000000;stroke-width:1;stroke-linecap:round;stroke-linejoin:round;}
</style>
<g>
	<path d="M39.4,40.9c1.4-0.8,2.6-2,3.4-3.4c0.4-0.7,0.7-1.5,1-2.2c0.3-0.8,0.4-1.6,0.5-2.4c0.1-0.8,0.1-1.6-0.1-2.4
		c-0.1-0.8-0.3-1.6-0.7-2.3c-0.4-0.7-0.8-1.3-1.4-1.8c-0.6-0.5-1.3-0.8-2-1.1c-0.8-0.2-1.5-0.3-2.3-0.2c-0.8,0.1-1.5,0.3-2.2,0.7
		c-0.7,0.3-1.3,0.8-1.9,1.3c-0.6,0.5-1.1,1.1-1.6,1.8c-0.5,0.6-0.8,1.3-1.1,2.1c-0.3,0.7-0.5,1.5-0.7,2.3c-0.3,1.5-0.1,3.1,0.4,4.6
		c0.1,0.2,0,0.5-0.2,0.6c-0.1,0-0.2,0-0.3,0l0,0L19.4,35l0.6-0.3l-2.2,5.8l-0.3-0.6c6.2,2,12.4,4.1,18.6,6.1
		c6.2,2,12.4,4.1,18.6,6.2l-0.4,0.2l2.3-6l0.2,0.4L48,43.8L39.4,40.9z M39.4,40.9l8.8,2.7l8.8,2.7c0.1,0,0.2,0.2,0.2,0.3l0,0l0,0
		l-2.2,6c-0.1,0.2-0.2,0.3-0.4,0.2l0,0c-6.2-2-12.4-3.9-18.6-6c-6.2-2-12.4-4-18.6-6c-0.3-0.1-0.4-0.4-0.3-0.6c0,0,0,0,0,0l2.2-5.8
		c0.1-0.2,0.3-0.4,0.6-0.3l10.5,3.4l-0.5,0.6c-0.3-0.8-0.5-1.6-0.6-2.5c-0.1-0.9,0-1.7,0.1-2.6c0.2-0.8,0.4-1.6,0.8-2.4
		c0.3-0.8,0.8-1.5,1.3-2.2c0.5-0.7,1.1-1.3,1.7-1.9c0.6-0.5,1.3-1,2.1-1.4c0.8-0.4,1.6-0.6,2.5-0.7c0.8-0.1,1.8,0.1,2.5,0.3
		c0.8,0.3,1.6,0.7,2.3,1.2c0.6,0.6,1.2,1.3,1.5,2c0.4,0.8,0.6,1.6,0.7,2.4c0.1,0.8,0.1,1.7,0,2.5c-0.1,0.8-0.3,1.7-0.6,2.4
		c-0.3,0.8-0.6,1.5-1.1,2.2C42.1,39,40.8,40.1,39.4,40.9z"/>
</g>
<g>
	<path d="M38.5,29.2c0,0,0.1,0,0.3,0.1c0.2,0.1,0.4,0.2,0.7,0.4c0.3,0.2,0.6,0.5,0.8,0.9c0.2,0.4,0.4,1,0.5,1.6c0.2,1.2-0.1,2.7-1,4
		c-0.5,0.6-1.1,1.2-1.9,1.6c-0.8,0.4-1.8,0.5-2.6,0.2c-0.3-0.1-0.4-0.1-0.6-0.3c-0.2-0.1-0.4-0.3-0.6-0.4c-0.3-0.3-0.6-0.7-0.8-1.1
		c-0.4-0.8-0.5-1.7-0.4-2.4c0.1-0.8,0.3-1.5,0.7-2.1c0.4-0.6,0.8-1.1,1.2-1.5c0.9-0.8,1.9-1.1,2.6-1.1c0.3,0,0.6,0,0.8,0.1
		C38.4,29.2,38.5,29.2,38.5,29.2z M38.5,29.2c0,0-0.1,0-0.3-0.1c-0.2,0-0.5-0.1-0.8-0.1c-0.3,0-0.8,0.1-1.2,0.3
		c-0.4,0.2-0.9,0.5-1.3,0.9c-0.4,0.4-0.7,1-1,1.5c-0.3,0.6-0.4,1.3-0.4,2c0,0.7,0.2,1.4,0.5,2c0.2,0.3,0.4,0.5,0.6,0.7
		c0.1,0.1,0.3,0.2,0.4,0.3c0.1,0.1,0.4,0.2,0.5,0.2c0.6,0.2,1.3,0.2,2-0.1c0.6-0.3,1.2-0.7,1.7-1.2c1-1,1.4-2.4,1.4-3.5
		c0-0.6-0.1-1.1-0.4-1.5c-0.2-0.4-0.5-0.7-0.8-1c-0.3-0.2-0.5-0.3-0.7-0.4C38.6,29.2,38.5,29.2,38.5,29.2z"/>
</g>
<g>
	<path d="M11.1,32.9c-2.2-0.6-4.3-1.2-6.5-1.8c-0.1,0-0.2-0.2-0.2-0.3c0,0,0-0.1,0.1-0.1l0,0l4.8-3.9c1.6-1.3,3.2-2.6,4.8-3.9
		l4.8-3.8c1.6-1.3,3.2-2.5,4.9-3.8c0.2-0.2,0.5-0.1,0.7,0.1c0.1,0.2,0.1,0.4,0,0.6l-3.3,4.3c-1.1,1.4-2.2,2.8-3.3,4.3
		c-1.1,1.4-2.2,2.8-3.3,4.2C13.4,30.2,12.3,31.6,11.1,32.9z M11.1,32.9c1-1.5,2-3,3.1-4.4c1-1.5,2.1-2.9,3.1-4.4
		c1.1-1.5,2.1-2.9,3.2-4.4l3.2-4.3l0.7,0.6c-1.6,1.3-3.2,2.6-4.8,3.8l-4.9,3.8c-1.6,1.3-3.2,2.5-4.9,3.7l-4.9,3.7l-0.1-0.4
		C6.9,31.4,9,32.1,11.1,32.9z"/>
</g>
<g>
	<path d="M25.4,14.7l6.4-5.2l0,0.2l-1-1.9c0,0,0-0.1,0-0.1l0.9-2.5l0.1,0.3l-10.5-3l0.4-0.2l-0.2,0.7C21.4,3,21.2,3.1,21,3.1l0,0
		l-8-2.3l0.5-0.2l-1.3,3.6l-0.3-0.6l8,2.4c0.2,0.1,0.4,0.3,0.3,0.6l0,0l-0.3,0.9l-0.3-0.6L26,8.8c0.2,0.1,0.4,0.3,0.3,0.6
		c0,0.1-0.1,0.2-0.2,0.2c-4.2,3.3-8.4,6.6-12.6,9.9L1,29.4l0.1-0.5l0.8,1.8C2,30.8,2,30.9,2,31l-1.1,3l-0.3-0.6l9.7,3.2l-0.4,0.2
		l1.5-3.9l0.2,0.4l0,0l0,0c-0.2-0.1-0.2-0.2-0.2-0.4c0,0,0-0.1,0-0.1l7-9.1L25.4,14.7z M25.4,14.7L18.6,24l-6.8,9.3l-0.2-0.5l0,0
		c0.2,0.1,0.3,0.2,0.2,0.4l0,0l0,0l-1.4,3.9c-0.1,0.2-0.2,0.3-0.4,0.2l0,0l-9.7-3.1c-0.2-0.1-0.3-0.3-0.3-0.5c0,0,0,0,0,0l1.1-3
		l0,0.3l-0.8-1.8c-0.1-0.2,0-0.4,0.1-0.5L13,18.8c4.2-3.3,8.4-6.6,12.6-9.9l0.2,0.8l-6.4-1.9c-0.2-0.1-0.4-0.3-0.3-0.6l0,0l0.4-0.9
		l0.3,0.6l-8-2.4c-0.2-0.1-0.4-0.3-0.3-0.5c0,0,0,0,0,0l1.4-3.6l0,0C12.8,0.1,13,0,13.2,0l8,2.4l-0.4,0.2L21.1,2l0,0
		c0.1-0.2,0.2-0.2,0.4-0.2L31.9,5c0.1,0,0.2,0.1,0.1,0.2l0,0l-1,2.5l0-0.1L32,9.5c0,0.1,0,0.1,0,0.2L25.4,14.7z"/>
</g>
</svg>
