<?xml version="1.0" encoding="utf-8"?>
<!-- Generator: Adobe Illustrator 18.0.0, SVG Export Plug-In . SVG Version: 6.00 Build 0)  -->
<!DOCTYPE svg PUBLIC "-//W3C//DTD SVG 1.1//EN" "http://www.w3.org/Graphics/SVG/1.1/DTD/svg11.dtd">
<svg version="1.1" id="Layer_1" xmlns="http://www.w3.org/2000/svg" xmlns:xlink="http://www.w3.org/1999/xlink" x="0px" y="0px"
	 viewBox="0 0 92.3 170.1" style="enable-background:new 0 0 92.3 170.1;" xml:space="preserve">
<style type="text/css">
	.st0{fill:none;stroke:#000000;stroke-width:1;stroke-linecap:round;stroke-linejoin:round;}
</style>
<path class="st0" d="M4.8,92.5c-1.6-1.4-3.5-0.5-4.3,1.3c-0.9,1.7-0.7,4.4,0.9,5.7c1.6,1.4,3.5,0.4,4.3-1.3
	C6.6,96.4,6.4,93.8,4.8,92.5z"/>
<polygon class="st0" points="70.3,40.4 70.6,28.4 68.4,28.2 68.1,40.3 "/>
<path class="st0" d="M24.2,57.7c0.8-1.7,0.6-4.3-0.9-5.6c-1.5-1.4-3.3-0.6-4.2,1.1c-0.8,1.7-0.6,4.3,0.9,5.6
	C21.5,60.1,23.3,59.4,24.2,57.7z"/>
<path class="st0" d="M56.4,106.4c0.1-1.6,0.2-3.3,0.3-4.9c0.4,0.4,0.8,0.8,1.2,1.2c2,1.7,3.7,3,6.6,2.7c1.6-0.1,2.8-0.8,3.9-1.8
	c-2.1,5.9-4.1,11.8-6.2,17.7C60.3,116.3,58.3,111.3,56.4,106.4z"/>
<path class="st0" d="M91.1,99.7c-1-0.9-1.8-0.9-2.8,0c-3.7-4.8-7.3-9.6-11-14.4c2.7-7.7,5.4-15.4,8.1-23c1.3,0.1,1.8-0.6,2.3-1.6
	c0.7-1.6,0.6-4-0.8-5.3c-1.4-1.3-3-0.5-3.7,1c-0.3,0.7-0.4,1.4-0.4,2.2c-6.4,2.9-12.8,5.8-19.2,8.7c-0.4-0.6-0.9-1.1-1.3-1.7
	c0.3-5.1,0.5-10.2,0.8-15.2c-0.7-0.1-1.5-0.2-2.2-0.3c-0.2,4.2-0.4,8.4-0.7,12.6c-0.3-0.4-0.6-0.7-0.9-1
	c-13.3-17.4-26.6-34.9-40-52.3c0.6-1.7,0.3-3.9-1-5.2c-0.9-0.8-2.1-1-3.2-0.3c-1-1.3-2-2.6-2.9-3.8c0.6,1.7,1.3,3.3,1.9,5
	C14,5,14,5,13.9,5.1c-0.9,1.7-0.6,4.3,0.9,5.7c0.5,0.5,1,0.7,1.7,0.7C25.1,33.2,33.6,55,42.2,76.7c-0.2,0.2-0.5,0.4-0.7,0.6
	c-9.4,4.3-18.9,8.5-28.3,12.8c-0.2-0.4-0.4-0.7-0.8-1c-1.6-1.4-3.4-0.5-4.3,1.2c-0.8,1.7-0.7,4.3,0.9,5.7c0.7,0.6,1.4,0.8,2.3,0.5
	c10.5,22.2,20.9,44.4,31.4,66.6c-0.2,0.3-0.4,0.5-0.6,0.9c-0.7,1.6-0.7,4.2,0.9,5.5c1.6,1.3,3.3,0.1,4-1.5c0.7-1.6,0.7-4.2-0.9-5.5
	c-0.1-0.1-0.3-0.1-0.4-0.2c1.5-21.7,3-43.4,4.5-65.1c0.3,0.7,0.5,1.4,0.8,2c-0.8,13-1.6,26-2.4,39.1c0.8,0.1,1.5,0.1,2.3,0.2
	c0.7-11.4,1.4-22.8,2.1-34.2c0.4,0.9,0.7,1.8,1.1,2.7c-0.1,2.2-0.3,4.4-0.4,6.7c0.8,0.1,1.5,0.1,2.3,0.2c0-0.6,0.1-1.2,0.1-1.8
	c1.4,3.5,2.7,6.9,4.1,10.4c-0.2,0.2-0.4,0.5-0.5,0.7c-0.7,1.6-0.6,4.1,0.8,5.4c1.5,1.3,3.2,0.3,3.9-1.3c0.6-1.4,0.6-3.2-0.2-4.5
	c4-11.5,8.1-23.1,12.1-34.6c3.6,4.7,7.2,9.4,10.8,14c-0.2,1.3,0.1,3,1.2,3.9c1.4,1.3,3,0.3,3.7-1.2C92.6,103.4,92.5,101,91.1,99.7z"
	/>
<path class="st0" d="M53.4,98.6c0-0.4,0-0.8,0.1-1.2c0.4,0.5,0.7,1.1,1.1,1.6c0,0.8-0.1,1.5-0.1,2.3C54.1,100.4,53.7,99.5,53.4,98.6
	z"/>
<path class="st0" d="M43.6,159c-1.6-3.4-3.2-6.9-4.8-10.3c0,0,0.1-0.1,0.1-0.1c-6.1-13.2-10.4-33.5-7.5-48.2c1.5-7.8,5-14.8,11-20.1
	c0.3-0.1,0.6-0.3,0.9-0.4c1.6,4.1,3.3,8.3,4.9,12.4C46.7,114.5,45.2,136.8,43.6,159z"/>
<path class="st0" d="M29.1,99.6c-2.1,10.9-1.1,21,1.4,31.6c-5.7-12.2-11.5-24.4-17.2-36.6c0.2-0.4,0.3-0.9,0.4-1.4
	c7.4-3.4,14.9-6.8,22.3-10.2C32.4,88.2,30.3,93.5,29.1,99.6z"/>
<path class="st0" d="M46,48.8c-1.6-1.3-3.3-2.5-5.2-3.5c-1.6-0.8-4.2-1.9-5.8-0.1c-1,1.1-1.1,2.3-1.2,3.6
	C29.6,38,25.4,27.2,21.1,16.3C29.4,27.1,37.7,38,46,48.8z"/>
<path class="st0" d="M54.8,74.6c0.4-0.2,0.8-0.4,1.2-0.6c-0.4,6.9-0.8,13.9-1.2,20.8c-0.4-0.6-0.8-1.2-1.1-1.7
	C54.1,86.9,54.4,80.8,54.8,74.6z"/>
<polygon class="st0" points="59.7,69 58.6,69.6 58.8,65.5 59.9,66.8 "/>
<path class="st0" d="M44.5,75.9c-0.4-1-0.8-2-1.2-3c0.1-0.1,0.2-0.2,0.3-0.3c-1.7-4-3.4-8.1-4.8-12.2c-0.7-2.1-1.4-4.2-1.9-6.3
	c-0.2-1-1.3-5.4-0.3-6.4c0.7-0.8,2.3-0.1,3,0.3c1,0.5,1.9,1.1,2.8,1.7c1.8,1.3,3.4,2.6,5.1,4.1c3.2,2.9,6.3,6,9.2,9.2
	c-0.2,2.6-0.3,5.1-0.5,7.7c-1.1,0.5-2.2,1-3.3,1.5c-0.1,0-0.2,0-0.3,0c0,0.1,0,0.1,0,0.2C49.9,73.5,47.2,74.7,44.5,75.9z"/>
<path class="st0" d="M51.1,88.1c-0.1,0.1-0.2,0.1-0.2,0.2c0.1-1.6,0.2-3.3,0.3-4.9c-0.8-0.1-1.5-0.2-2.3-0.3
	c-0.1,1.2-0.2,2.3-0.2,3.5c-1-2.6-2-5.2-3-7.8c2.3-1,4.6-2.1,6.9-3.1c-0.3,4.6-0.6,9.1-0.8,13.7C51.4,88.9,51.2,88.5,51.1,88.1z"/>
<path class="st0" d="M63,70.9c3.8,5,7.6,9.9,11.4,14.9c-0.4,1.7-0.9,3.4-1.5,5.1c0,0,0,0,0,0.1c-1.1,3.1-3.8,10.9-8.5,11.3
	c-3,0.3-5.9-2.6-7.5-4.6c0.5-8.2,1-16.5,1.5-24.7c0.4-0.2,0.8-0.4,1.2-0.5c-0.3,5.6-0.6,11.3-0.9,16.9c0.8,0.1,1.5,0.1,2.3,0.2
	c0.3-6.1,0.6-12.1,1-18.2C62.2,71.2,62.6,71,63,70.9z"/>
<path class="st0" d="M75,82.4c-3.1-4-6.1-8-9.2-12c3-0.2,6.7,0.3,8.4,3.4C75.6,76.2,75.4,79.8,75,82.4z"/>
<path class="st0" d="M75.9,71.8c-1.4-2.4-3.1-3.6-5.7-4.2c4.3-2,8.6-3.9,12.9-5.9c-1.9,5.4-3.8,10.7-5.6,16.1
	C77.4,75.6,77,73.7,75.9,71.8z"/>
<polygon class="st0" points="64.7,38.8 63.3,63 65.5,63.3 66.9,39.2 "/>
</svg>
