<?xml version="1.0" encoding="utf-8"?>
<!-- Generator: Adobe Illustrator 18.0.0, SVG Export Plug-In . SVG Version: 6.00 Build 0)  -->
<!DOCTYPE svg PUBLIC "-//W3C//DTD SVG 1.1//EN" "http://www.w3.org/Graphics/SVG/1.1/DTD/svg11.dtd">
<svg version="1.1" id="Default" xmlns="http://www.w3.org/2000/svg" xmlns:xlink="http://www.w3.org/1999/xlink" x="0px" y="0px"
	 viewBox="0 0 139.2 105.6" style="enable-background:new 0 0 139.2 105.6;" xml:space="preserve">
<style type="text/css">
	.st0{fill:none;stroke:#000000;stroke-width:1;stroke-linecap:round;stroke-linejoin:round;}
</style>
<line class="st0" x1="90.4" y1="66.1" x2="36.2" y2="76.5"/>
<line class="st0" x1="36.2" y1="76.5" x2="40" y2="87.3"/>
<line class="st0" x1="40" y1="87.3" x2="93.2" y2="75.7"/>
<line class="st0" x1="93.2" y1="75.7" x2="90.4" y2="66.1"/>
<path class="st0" d="M61.9,43c-1.9,9.8,4.5,19.3,14.2,21.4c9.8,2.1,19.4-4.2,21.3-14.1C99.4,40.5,93,31,83.3,29
	C73.5,26.9,63.9,33.1,61.9,43z"/>
<line class="st0" x1="97.5" y1="50.5" x2="97.2" y2="52.1"/>
<line class="st0" x1="53.9" y1="10.9" x2="3.1" y2="0.5"/>
<line class="st0" x1="53.1" y1="15" x2="53.9" y2="10.9"/>
<line class="st0" x1="103.4" y1="25.4" x2="53.1" y2="15"/>
<line class="st0" x1="116.6" y1="98.7" x2="121.2" y2="99.7"/>
<line class="st0" x1="120.2" y1="81.5" x2="116.6" y2="98.7"/>
<line class="st0" x1="0.5" y1="11.9" x2="51.5" y2="22.4"/>
<line class="st0" x1="3.1" y1="0.5" x2="0.5" y2="11.9"/>
<line class="st0" x1="51.5" y1="22.4" x2="52.6" y2="18.3"/>
<line class="st0" x1="52.6" y1="18.3" x2="95.5" y2="27.9"/>
<line class="st0" x1="95.5" y1="27.9" x2="109.6" y2="59.1"/>
<line class="st0" x1="85.5" y1="90.3" x2="89" y2="93.2"/>
<line class="st0" x1="89" y1="93.2" x2="111.8" y2="64.1"/>
<line class="st0" x1="111.8" y1="64.1" x2="120.2" y2="81.5"/>
<line class="st0" x1="121.2" y1="99.7" x2="123.9" y2="88.7"/>
<line class="st0" x1="123.9" y1="88.7" x2="131.6" y2="105.1"/>
<line class="st0" x1="131.6" y1="105.1" x2="138.5" y2="101.9"/>
<line class="st0" x1="138.5" y1="101.9" x2="127.9" y2="63.8"/>
<line class="st0" x1="127.9" y1="63.8" x2="133.8" y2="33"/>
<line class="st0" x1="133.8" y1="33" x2="131.5" y2="32.3"/>
<line class="st0" x1="131.5" y1="32.3" x2="122.5" y2="41.4"/>
<line class="st0" x1="122.5" y1="41.4" x2="118.8" y2="28.1"/>
<line class="st0" x1="118.8" y1="28.1" x2="111.8" y2="30.3"/>
<line class="st0" x1="111.8" y1="30.3" x2="117.5" y2="48.3"/>
<line class="st0" x1="117.5" y1="48.3" x2="115.7" y2="50.1"/>
<line class="st0" x1="115.7" y1="50.1" x2="103.4" y2="25.4"/>
<path class="st0" d="M134.1,34.3c-2,10.4-3.9,20.7-5.9,31.1"/>
<path class="st0" d="M133.4,33.3c0.5,0.2,0.7,0.4,0.6,1"/>
<line class="st0" x1="131.1" y1="32.6" x2="133.4" y2="33.3"/>
<path class="st0" d="M130.2,32.8c0.3-0.3,0.5-0.3,0.9-0.2"/>
<path class="st0" d="M122.2,41c2.7-2.7,5.3-5.4,8-8.2"/>
<path class="st0" d="M118.9,29c1.1,4,2.2,8,3.3,12.1"/>
<path class="st0" d="M117.8,28.4c0.6-0.2,0.9,0,1.1,0.6"/>
<line class="st0" x1="115.1" y1="50.1" x2="115.7" y2="49.5"/>
<path class="st0" d="M103.1,26c4,8,8,16.1,12,24.1"/>
<path class="st0" d="M102.5,25.5c0.3,0.1,0.5,0.2,0.6,0.5"/>
<line class="st0" x1="52.2" y1="15.2" x2="102.5" y2="25.5"/>
<path class="st0" d="M52.9,11.8c-0.2,1.1-0.4,2.3-0.7,3.4"/>
<path class="st0" d="M52.2,10.8c0.6,0.1,0.8,0.4,0.7,1"/>
<line class="st0" x1="107.7" y1="60.6" x2="109.6" y2="59.1"/>
<line class="st0" x1="110.7" y1="67.4" x2="111.8" y2="64.1"/>
<line class="st0" x1="128.1" y1="65.4" x2="127.9" y2="63.8"/>
<line class="st0" x1="134.1" y1="34.3" x2="133.8" y2="33"/>
<line class="st0" x1="133.4" y1="33.3" x2="133.8" y2="33"/>
<line class="st0" x1="131.1" y1="32.6" x2="131.5" y2="32.3"/>
<line class="st0" x1="130.2" y1="32.8" x2="131.5" y2="32.3"/>
<line class="st0" x1="122.2" y1="41" x2="122.5" y2="41.4"/>
<line class="st0" x1="118.9" y1="29" x2="118.8" y2="28.1"/>
<line class="st0" x1="117.8" y1="28.4" x2="118.8" y2="28.1"/>
<line class="st0" x1="115.7" y1="49.5" x2="117.5" y2="48.3"/>
<line class="st0" x1="115.1" y1="50.1" x2="115.7" y2="50.1"/>
<line class="st0" x1="103.1" y1="26" x2="103.4" y2="25.4"/>
<line class="st0" x1="102.5" y1="25.5" x2="103.4" y2="25.4"/>
<line class="st0" x1="52.2" y1="15.2" x2="53.1" y2="15"/>
<line class="st0" x1="52.9" y1="11.8" x2="53.9" y2="10.9"/>
<line class="st0" x1="52.2" y1="10.8" x2="53.9" y2="10.9"/>
<line class="st0" x1="52" y1="20.3" x2="50.9" y2="21.9"/>
<line class="st0" x1="97.5" y1="74.8" x2="95.5" y2="76.3"/>
<line class="st0" x1="108.6" y1="59.9" x2="84.4" y2="91.1"/>
<line class="st0" x1="133.2" y1="82.9" x2="133.5" y2="84.7"/>
<line class="st0" x1="138.7" y1="102.9" x2="128" y2="64.6"/>
<line class="st0" x1="130.8" y1="48.4" x2="131.1" y2="49.9"/>
<line class="st0" x1="128" y1="64.6" x2="133.9" y2="33.7"/>
<line class="st0" x1="133.8" y1="33" x2="134" y2="33.7"/>
<path class="st0" d="M133.9,33.7c0.1-0.3,0-0.4-0.3-0.5"/>
<line class="st0" x1="132.6" y1="32.6" x2="132.3" y2="32.9"/>
<line class="st0" x1="133.6" y1="33.1" x2="131.3" y2="32.5"/>
<line class="st0" x1="131.5" y1="32.3" x2="130.6" y2="32.6"/>
<path class="st0" d="M131.3,32.5c-0.2-0.1-0.3,0-0.5,0.1"/>
<line class="st0" x1="127" y1="36.9" x2="126.2" y2="36.9"/>
<line class="st0" x1="130.8" y1="32.6" x2="122.4" y2="41.2"/>
<line class="st0" x1="120.7" y1="34.8" x2="120.6" y2="35"/>
<line class="st0" x1="122.4" y1="41.2" x2="118.9" y2="28.6"/>
<line class="st0" x1="118.8" y1="28.1" x2="118.5" y2="28.4"/>
<path class="st0" d="M118.9,28.6c-0.1-0.3-0.3-0.4-0.6-0.3"/>
<line class="st0" x1="115.3" y1="29.2" x2="114.2" y2="29.4"/>
<line class="st0" x1="116.6" y1="49.2" x2="115.4" y2="49.8"/>
<line class="st0" x1="116.5" y1="48.9" x2="115.4" y2="50.1"/>
<line class="st0" x1="109.5" y1="37.8" x2="109.1" y2="38"/>
<line class="st0" x1="115.4" y1="50.1" x2="103.3" y2="25.7"/>
<line class="st0" x1="103.4" y1="25.4" x2="102.9" y2="25.7"/>
<path class="st0" d="M103.3,25.7c-0.1-0.1-0.2-0.2-0.3-0.2"/>
<line class="st0" x1="78.1" y1="20.2" x2="77.2" y2="20.3"/>
<line class="st0" x1="102.9" y1="25.4" x2="52.6" y2="15.1"/>
<line class="st0" x1="53.5" y1="13" x2="52.5" y2="13.5"/>
<line class="st0" x1="52.6" y1="15.1" x2="53.4" y2="11.3"/>
<line class="st0" x1="53.9" y1="10.9" x2="52.7" y2="11.2"/>
<path class="st0" d="M53.4,11.3c0.1-0.3,0-0.5-0.3-0.5"/>
<line class="st0" x1="28.4" y1="5.7" x2="26.3" y2="5.5"/>
</svg>
