<?xml version="1.0" encoding="utf-8"?>
<!-- Generator: Adobe Illustrator 18.0.0, SVG Export Plug-In . SVG Version: 6.00 Build 0)  -->
<!-- <!DOCTYPE svg PUBLIC "-//W3C//DTD SVG 1.1//EN" "http://www.w3.org/Graphics/SVG/1.1/DTD/svg11.dtd"> -->

<svg version="1.1" id="Layer_1" xmlns="http://www.w3.org/2000/svg" xmlns:xlink="http://www.w3.org/1999/xlink" 
	 viewBox="0 0 200 136.4" style="enable-background:new 0 0 189.5 136.4;" xml:space="preserve">
<style type="text/css">
	.st0{fill:none;stroke:#000000;stroke-width:1;stroke-linecap:round;stroke-linejoin:round;}
</style>
<polygon class="st0" points="56.3,67.4 76.4,90.3 112.8,89.5 95.2,69.3 98.4,66.5 118,89 119.6,89.2 119.6,89.3 151.4,88.7 
	100.4,29.7 "/>
<polygon class="st0" points="171.7,1.9 144.8,60.7 163.2,82 182.7,65.2 189.5,73.1 160.4,98.3 159.7,97.4 159.2,97.8 155.1,93 
	121.9,93.7 118.8,96.3 118.7,96.2 113.3,136.4 108.9,135.8 114.5,93.9 80.2,94.6 93.9,110.2 89.7,113.8 52,71 3.2,112.8 0,109.2 
	97.4,26.2 106.3,18.6 107.6,17.4 141.7,57 167.7,0 "/>
</svg>
