<?xml version="1.0" encoding="utf-8"?>
<!-- Generator: Adobe Illustrator 18.0.0, SVG Export Plug-In . SVG Version: 6.00 Build 0)  -->
<!DOCTYPE svg PUBLIC "-//W3C//DTD SVG 1.1//EN" "http://www.w3.org/Graphics/SVG/1.1/DTD/svg11.dtd">
<svg version="1.1" id="Layer_1" xmlns="http://www.w3.org/2000/svg" xmlns:xlink="http://www.w3.org/1999/xlink" x="0px" y="0px"
	 viewBox="0 0 171.4 180.6" style="enable-background:new 0 0 171.4 180.6;" xml:space="preserve">
<style type="text/css">
	.st0{fill:none;stroke:#000000;stroke-width:1;stroke-linecap:round;stroke-linejoin:round;}
</style>
<path class="st0" d="M7.2,132c-2.8,3.2-0.9,7.6,3.3,8c3.8,0.3,7.5-2.9,6.3-6.7c17.5-7.5,35.1-14.9,52.6-22.4
	c15.3,20.3,30.6,40.6,45.9,60.9c-4.6,3.2-2.2,9.4,3.3,8.2c5.1-1.1,6.8-7.9,1.4-9.2c9.7-31.3,19.5-62.6,29.2-93.8
	c3.8-1.6,7.6-3.2,11.4-4.8c1.3,5.7,9.7,4,10.4-1.7c0.3-2.6-1.5-4.8-4.2-5.1c-2.5-0.2-4.8,1.2-5.9,3.5c-1.7-0.3-3.4-0.6-5.1-0.9
	c-1.5-2.9-5-3-7.5-1.3c-8.1-1.5-16.3-2.9-24.4-4.4c1.8-6.1-6.5-8.5-9.8-3.3c-3.5,5.5,3.5,10.2,8.2,5.8c8,1.4,16,2.8,24,4.3
	c-0.6,1.3-0.7,2.4-0.2,3.8c-25.7,10.9-51.3,21.7-77,32.6c-4.3-5.8-8.7-11.5-13-17.3c3.9-5.3-3-10.5-8-6.4c-2,1.7-2.8,4.6-1.2,6.9
	c1.6,2.3,4.6,2.6,6.9,1.5c4.2,5.5,8.3,11,12.5,16.5c-3.8,1.6-7.5,3.2-11.3,4.8c-1.4-3.2-5.5-3.6-8.2-1.7c-2.8,2-3.5,6-0.5,8.1
	c-10.3,4.4-20.7,8.8-31,13.2c-0.5-0.4-1-0.6-1.6-0.8c-0.8-19.8-1.6-39.5-2.5-59.3C39.8,48.1,68.4,25.4,97,2.7
	c-0.6-0.7-1.2-1.4-1.8-2.2C67.1,22.8,39.1,45.1,11,67.4c-0.7-16.2-1.3-32.5-2-48.7c6.1-3.2,2.9-11.8-3.8-10.2
	C-1.5,10-0.9,19.2,6,19.3c0.7,16.8,1.4,33.6,2.1,50.4c-2.3,1.8-4.6,3.7-6.9,5.5c0.6,0.7,1.3,1.4,1.9,2.1c1.7-1.4,3.5-2.8,5.2-4.1
	c0.8,18.9,1.6,37.9,2.4,56.8C9.3,130.3,8.2,130.8,7.2,132z"/>
<polygon class="st0" points="117.5,170 72.1,109.7 145.9,78.3 "/>
<line class="st0" x1="15.3" y1="131" x2="16.8" y2="136.1"/>
<line class="st0" x1="15.1" y1="130.8" x2="16.6" y2="135.8"/>
<polygon class="st0" points="76.7,68.2 91.1,56.8 92.9,58.9 78.4,70.3 "/>
<polygon class="st0" points="61.8,70.6 93.1,46.6 94.8,48.8 63.6,72.7 "/>
<polygon class="st0" points="48.4,72.7 94,36.5 95.8,38.7 50.2,74.8 "/>
<polygon class="st0" points="33.8,75.3 95.4,25.5 97.2,27.6 35.7,77.3 "/>
<polygon class="st0" points="17.5,76.9 95.5,15.3 97.3,17.5 19.4,79 "/>
</svg>
