<?xml version="1.0" encoding="utf-8"?>
<!-- Generator: Adobe Illustrator 18.0.0, SVG Export Plug-In . SVG Version: 6.00 Build 0)  -->
<!DOCTYPE svg PUBLIC "-//W3C//DTD SVG 1.1//EN" "http://www.w3.org/Graphics/SVG/1.1/DTD/svg11.dtd">
<svg version="1.1" id="Default" xmlns="http://www.w3.org/2000/svg" xmlns:xlink="http://www.w3.org/1999/xlink" x="0px" y="0px"
	 viewBox="0 0 45.1 82.2" style="enable-background:new 0 0 45.1 82.2;" xml:space="preserve">
<style type="text/css">
	.st0{fill:none;stroke:#000000;stroke-width:1;stroke-linecap:round;stroke-linejoin:round;}
</style>
<path class="st0" d="M5.7,81.7c-1.6-0.1-3.3-0.3-4.9-0.4"/>
<path class="st0" d="M6.1,81.3c0,0.3-0.1,0.5-0.4,0.5"/>
<line class="st0" x1="10.6" y1="52.8" x2="6.1" y2="81.3"/>
<path class="st0" d="M10.3,52.3c0.3,0,0.3,0.2,0.3,0.5"/>
<path class="st0" d="M8.9,52.1c0.5,0.1,0.9,0.2,1.4,0.2"/>
<line class="st0" x1="12.9" y1="29" x2="8.9" y2="52.1"/>
<path class="st0" d="M25.5,19.5c-4.2,3.2-8.5,6.3-12.7,9.5"/>
<path class="st0" d="M38.2,29.8c-4.2-3.4-8.5-6.9-12.7-10.3"/>
<path class="st0" d="M38.7,29.7c-0.1,0.2-0.3,0.3-0.5,0.2"/>
<path class="st0" d="M39.9,27.6c-0.4,0.7-0.8,1.4-1.2,2.1"/>
<path class="st0" d="M39.8,27c0.2,0.2,0.2,0.4,0.1,0.6"/>
<path class="st0" d="M28.3,17.4c3.8,3.2,7.7,6.3,11.5,9.5"/>
<path class="st0" d="M34.8,12.3c-2.2,1.7-4.3,3.4-6.5,5.1"/>
<path class="st0" d="M41.7,13c-2.3-0.2-4.6-0.5-6.9-0.7"/>
<path class="st0" d="M42.1,12.6c0,0.3-0.1,0.4-0.4,0.4"/>
<line class="st0" x1="42.5" y1="10.2" x2="42.1" y2="12.6"/>
<path class="st0" d="M42.2,9.7c0.3,0,0.3,0.2,0.3,0.5"/>
<path class="st0" d="M38.7,9.1c1.2,0.2,2.3,0.4,3.5,0.5"/>
<path class="st0" d="M44.4,4.7c-1.9,1.5-3.8,3-5.7,4.4"/>
<path class="st0" d="M44.6,4.1c0.1,0.3,0.1,0.4-0.2,0.6"/>
<path class="st0" d="M43.3,0.7c0.4,1.1,0.9,2.2,1.3,3.4"/>
<path class="st0" d="M42.9,0.5c0.2-0.1,0.3,0,0.4,0.2"/>
<path class="st0" d="M27.5,8.6c5.1-2.7,10.3-5.3,15.4-8"/>
<path class="st0" d="M14.7,7.6c4.2,0.3,8.5,0.7,12.7,1"/>
<path class="st0" d="M14.3,8c0.1-0.2,0.1-0.4,0.4-0.4"/>
<line class="st0" x1="14" y1="9.2" x2="14.3" y2="8"/>
<path class="st0" d="M14.1,9.7C14,9.5,14,9.4,14,9.2"/>
<path class="st0" d="M17.5,13.3c-1.1-1.2-2.3-2.4-3.4-3.6"/>
<path class="st0" d="M12.5,15.9c1.7-0.9,3.3-1.7,5-2.6"/>
<path class="st0" d="M12.3,16.5c-0.1-0.3,0-0.5,0.3-0.6"/>
<path class="st0" d="M13.2,20.1c-0.3-1.2-0.6-2.4-0.9-3.6"/>
<path class="st0" d="M13.6,20.3c-0.2,0.1-0.4,0-0.5-0.2"/>
<path class="st0" d="M21,16.1c-2.5,1.4-4.9,2.8-7.4,4.2"/>
<line class="st0" x1="21.2" y1="16.4" x2="21" y2="16.1"/>
<path class="st0" d="M11.3,24.3c3.3-2.7,6.6-5.3,9.9-8"/>
<path class="st0" d="M11.1,24.7c0-0.1,0.1-0.3,0.2-0.4"/>
<line class="st0" x1="6.8" y1="52" x2="11.1" y2="24.7"/>
<path class="st0" d="M5.4,52c0.5,0,1,0,1.4,0.1"/>
<path class="st0" d="M5,52.4C5,52.1,5.1,52,5.4,52"/>
<line class="st0" x1="0.5" y1="80.9" x2="5" y2="52.4"/>
<path class="st0" d="M0.8,81.3c-0.3,0-0.3-0.2-0.3-0.5"/>
<path class="st0" d="M18.9,46c-2.6-0.1-4.4-1.9-5.4-4.1c-1.1-2.3-1.2-4.5-0.8-7c0.8-4.2,4.2-9.6,9.2-9.3c2.6,0.1,4.4,1.9,5.4,4.1
	c1.1,2.3,1.2,4.5,0.8,7C27.3,40.8,23.9,46.2,18.9,46z"/>
<path class="st0" d="M37.4,54C36,55,34.5,55.9,33,56.8"/>
<path class="st0" d="M37.7,53.4c0,0.3,0,0.4-0.2,0.6"/>
<path class="st0" d="M32.8,26.3c1.6,9,3.3,18.1,4.9,27.1"/>
<path class="st0" d="M32.3,26c0.3-0.1,0.4,0,0.4,0.3"/>
<path class="st0" d="M28.4,28.2c1.3-0.7,2.6-1.5,3.9-2.2"/>
<path class="st0" d="M28.1,28.8c0-0.3,0-0.4,0.2-0.6"/>
<path class="st0" d="M32.6,56.6c-1.5-9.3-3-18.6-4.4-27.8"/>
<path class="st0" d="M33,56.8c-0.2,0.2-0.4,0-0.4-0.2"/>
<line class="st0" x1="12.5" y1="31.4" x2="13.8" y2="31.5"/>
<line class="st0" x1="28.2" y1="32.6" x2="28.8" y2="32.6"/>
</svg>
