<?xml version="1.0" encoding="utf-8"?>
<!-- Generator: Adobe Illustrator 18.0.0, SVG Export Plug-In . SVG Version: 6.00 Build 0)  -->
<!DOCTYPE svg PUBLIC "-//W3C//DTD SVG 1.1//EN" "http://www.w3.org/Graphics/SVG/1.1/DTD/svg11.dtd">
<svg version="1.1" id="Layer_1" xmlns="http://www.w3.org/2000/svg" xmlns:xlink="http://www.w3.org/1999/xlink" x="0px" y="0px"
	 viewBox="0 0 162.7 179.8" style="enable-background:new 0 0 162.7 179.8;" xml:space="preserve">
<style type="text/css">
	.st0{fill:none;stroke:#000000;stroke-width:1;stroke-linecap:round;stroke-linejoin:round;}
</style>
<path class="st0" d="M2.2,179.3c-0.6-1.9-1.1-3.8-1.7-5.7c13.1,0.7,33.8-1.2,46.7-3c10.9-25.4,21.8-50.8,32.7-76.2
	c-5,3.4-9.5,7.2-13.9,11.3c-1.7-5.8-3.3-11.5-5-17.3c4.1-4.2,10.8-9.4,15.7-12.6c0.3-5.3,0.5-10.7,0.8-16c-3.5-0.2-6.9-0.7-10.3-1.6
	c-0.6-2.6-1.2-5.1-1.7-7.7c5.2,1.3,10.3,1.8,15.6,1.5c4.6-0.2,11.1-1.3,13.7-6.1c4.1-7.3,7.5-11.1,16.4-11.7c-1-3.6-2-7.1-3-10.7
	c-0.2,0.1-0.4,0.3-0.7,0.4c-5.5,3.4-13.4,6.4-20.1,3.6c-7-2.9-9.7-10.8-10.8-17.2c1.2-0.1,2.5-0.2,3.7-0.3c0.7,4,3.5,8.6,7.6,10
	c4.3,1.5,9.1-0.4,12.6-2.3c7.2-4,14.5-11.3,19.8-17.2c1.1,2.2,2.1,4.4,3.2,6.7c-3,5-8.2,11-12.8,14.6c1.2,4.2,2.4,8.3,3.5,12.5
	c5.6,0.1,11.1,0.9,16.6,2c0.7,2.5,1.5,5.1,2.2,7.6c-5.2-1.6-12.5-2.6-17.9-2.2c-6.1,0.5-12,2.7-14.8,8.8c-3.3,7.4-11.4,9.4-18.3,9.6
	c-0.4,4.5-0.9,9-1.3,13.5c19.4-11.4,41.1-14.9,61.6-2.2c1.4,5.3,2.8,10.7,4.3,16c-7.1-4.3-18.4-6.2-26.5-6.2c-9.5,0-18,2-26.6,5.8
	c14.5,20.2,29,40.4,43.6,60.6c7.7-3,15.3-6.1,22.8-9.6c0.7,2.1,1.5,4.2,2.2,6.3c-10.2,5.5-27.3,12-38.2,15.6
	c-13.1,4.4-26.3,8-39.8,11C57,176.8,30,179.7,2.2,179.3z"/>
<path class="st0" d="M135,148.3c-14.4-20.2-28.7-40.4-43.1-60.6c-0.7,0.3-1.3,0.6-2,1c-6.7,16.3-28.8,65.1-36.1,81.1
	C81.7,165.4,108.5,158.3,135,148.3z"/>
</svg>
