<?xml version="1.0" encoding="utf-8"?>
<!-- Generator: Adobe Illustrator 18.0.0, SVG Export Plug-In . SVG Version: 6.00 Build 0)  -->
<!DOCTYPE svg PUBLIC "-//W3C//DTD SVG 1.1//EN" "http://www.w3.org/Graphics/SVG/1.1/DTD/svg11.dtd">
<svg version="1.1" id="Default" xmlns="http://www.w3.org/2000/svg" xmlns:xlink="http://www.w3.org/1999/xlink" x="0px" y="0px"
	 viewBox="0 0 294.7 324.9" style="enable-background:new 0 0 294.7 324.9;" xml:space="preserve">
<style type="text/css">
	.st0{fill:none;stroke:#000000;stroke-width:1;stroke-linecap:round;stroke-linejoin:round;}
</style>
<line class="st0" x1="223.8" y1="260.1" x2="229.4" y2="234.5"/>
<line class="st0" x1="229.4" y1="234.5" x2="223.9" y2="231.8"/>
<line class="st0" x1="223.9" y1="231.8" x2="217.9" y2="263.9"/>
<line class="st0" x1="217.9" y1="263.9" x2="223.8" y2="260.1"/>
<line class="st0" x1="291.3" y1="163.3" x2="281.6" y2="188.7"/>
<line class="st0" x1="281.6" y1="188.7" x2="285.8" y2="156.1"/>
<line class="st0" x1="285.8" y1="156.1" x2="294.2" y2="155.7"/>
<line class="st0" x1="294.2" y1="155.7" x2="291.8" y2="162.2"/>
<line class="st0" x1="291.8" y1="162.2" x2="291.5" y2="162.2"/>
<line class="st0" x1="291.5" y1="162.2" x2="291.3" y2="163.3"/>
<line class="st0" x1="235.2" y1="237.5" x2="231.3" y2="255.3"/>
<line class="st0" x1="210.5" y1="268.6" x2="219.2" y2="222.2"/>
<line class="st0" x1="219.2" y1="222.2" x2="230.7" y2="228.1"/>
<line class="st0" x1="230.7" y1="228.1" x2="251.4" y2="132.5"/>
<line class="st0" x1="251.4" y1="132.5" x2="257.5" y2="134.8"/>
<line class="st0" x1="257.5" y1="134.8" x2="236.6" y2="231.1"/>
<line class="st0" x1="236.6" y1="231.1" x2="241.1" y2="233.4"/>
<line class="st0" x1="241.1" y1="233.4" x2="238.2" y2="239"/>
<line class="st0" x1="238.2" y1="239" x2="235.2" y2="237.5"/>
<line class="st0" x1="224.8" y1="122.7" x2="210.5" y2="233.6"/>
<line class="st0" x1="210.5" y1="233.6" x2="176.7" y2="224.3"/>
<line class="st0" x1="176.7" y1="224.3" x2="189.4" y2="109.6"/>
<line class="st0" x1="189.4" y1="109.6" x2="195.5" y2="111.9"/>
<line class="st0" x1="195.5" y1="111.9" x2="183.7" y2="219.6"/>
<line class="st0" x1="183.7" y1="219.6" x2="205.2" y2="225.6"/>
<line class="st0" x1="205.2" y1="225.6" x2="218.7" y2="120.4"/>
<line class="st0" x1="218.7" y1="120.4" x2="224.8" y2="122.7"/>
<line class="st0" x1="166.5" y1="101.2" x2="154" y2="217.9"/>
<line class="st0" x1="154" y1="217.9" x2="147.7" y2="217.3"/>
<line class="st0" x1="147.7" y1="217.3" x2="160.3" y2="98.9"/>
<line class="st0" x1="160.3" y1="98.9" x2="166.5" y2="101.2"/>
<line class="st0" x1="121.7" y1="206.9" x2="108.4" y2="324.4"/>
<line class="st0" x1="108.4" y1="324.4" x2="102.3" y2="322.1"/>
<line class="st0" x1="102.3" y1="322.1" x2="109" y2="262.1"/>
<line class="st0" x1="109" y1="262.1" x2="100.3" y2="300.4"/>
<line class="st0" x1="100.3" y1="300.4" x2="94" y2="299.4"/>
<line class="st0" x1="94" y1="299.4" x2="103.5" y2="207.4"/>
<line class="st0" x1="103.5" y1="207.4" x2="109.8" y2="208"/>
<line class="st0" x1="109.8" y1="208" x2="105.6" y2="248.7"/>
<line class="st0" x1="105.6" y1="248.7" x2="115.4" y2="205.9"/>
<line class="st0" x1="115.4" y1="205.9" x2="121.7" y2="206.9"/>
<line class="st0" x1="159.7" y1="27.7" x2="129.7" y2="180.1"/>
<line class="st0" x1="129.7" y1="180.1" x2="114.4" y2="174.4"/>
<line class="st0" x1="114.4" y1="174.4" x2="130.3" y2="30.8"/>
<line class="st0" x1="130.3" y1="30.8" x2="120.9" y2="27.3"/>
<line class="st0" x1="120.9" y1="27.3" x2="121.5" y2="8"/>
<line class="st0" x1="91.6" y1="201.4" x2="82.6" y2="268.7"/>
<line class="st0" x1="82.6" y1="268.7" x2="77.6" y2="266.1"/>
<line class="st0" x1="77.6" y1="266.1" x2="85.9" y2="200.6"/>
<line class="st0" x1="85.9" y1="200.6" x2="91.6" y2="201.4"/>
<line class="st0" x1="0.5" y1="298.7" x2="17.3" y2="186.4"/>
<line class="st0" x1="17.3" y1="186.4" x2="25.6" y2="189.1"/>
<line class="st0" x1="25.6" y1="189.1" x2="63.8" y2="0.5"/>
<line class="st0" x1="63.8" y1="0.5" x2="77.9" y2="4.4"/>
<line class="st0" x1="77.9" y1="4.4" x2="55.1" y2="187.5"/>
<line class="st0" x1="55.1" y1="187.5" x2="82.6" y2="194.7"/>
<line class="st0" x1="82.6" y1="194.7" x2="77.2" y2="209.2"/>
<line class="st0" x1="77.2" y1="209.2" x2="48.7" y2="202.6"/>
<line class="st0" x1="48.7" y1="202.6" x2="57.1" y2="120"/>
<line class="st0" x1="57.1" y1="120" x2="42.7" y2="193.6"/>
<line class="st0" x1="42.7" y1="193.6" x2="36.2" y2="190.4"/>
<line class="st0" x1="36.2" y1="190.4" x2="18.1" y2="281.8"/>
<line class="st0" x1="18.1" y1="281.8" x2="9.6" y2="278.3"/>
<line class="st0" x1="9.6" y1="278.3" x2="2.1" y2="328.2"/>
<line class="st0" x1="9.2" y1="178.3" x2="7.7" y2="184.6"/>
<line class="st0" x1="7.7" y1="184.6" x2="14" y2="186.1"/>
<line class="st0" x1="56.5" y1="123.2" x2="56.8" y2="123"/>
</svg>
