<?xml version="1.0" encoding="utf-8"?>
<!-- Generator: Adobe Illustrator 18.0.0, SVG Export Plug-In . SVG Version: 6.00 Build 0)  -->
<!DOCTYPE svg PUBLIC "-//W3C//DTD SVG 1.1//EN" "http://www.w3.org/Graphics/SVG/1.1/DTD/svg11.dtd">
<svg version="1.1" id="Layer_1" xmlns="http://www.w3.org/2000/svg" xmlns:xlink="http://www.w3.org/1999/xlink" x="0px" y="0px"
	 viewBox="0 0 74.8 67.9" style="enable-background:new 0 0 74.8 67.9;" xml:space="preserve"
	 >
<style type="text/css">
	.st0{fill:none;stroke:#000000;stroke-width:1;stroke-linecap:round;stroke-linejoin:round;}
</style>
<g>
	<path class="st0" d="M18.7,10.7c0,0,0.2-2.9-0.4-5.7l-1.9-0.3c0,0,0.7,2.7,0.6,5.9l-2,0.1c0,0,1.3,19.4-13.9,34.8l6,0.3
		c0,0,5.3-5.2,9.2-14.2c0.2,3.6,0,16-13.9,18.5l-0.4,1.7c0,0,17.7-1.8,17.3-20.3h1.3l0-0.8h-3.9c2.3-5.5,4.1-12.2,3.9-19.9
		L18.7,10.7z"/>
	<path class="st0" d="M39.5,31.8c3.6,0.3,15.8,2.4,10.6,18.3h5c0,0,7.8-18.9-14.3-19.7L54.1,16h-4.2l-27.8,30l4.2,0.1L39.5,31.8z"/>
	<polygon class="st0" points="56.6,51.6 59.9,51.6 59.9,50.9 56.5,50.9 	"/>
	<path class="st0" d="M36.2,51v0.6c17.7-0.1,18.6,12.8,18.6,12.8h5C56.6,47.8,36.2,51,36.2,51z"/>
	<polygon class="st0" points="21.8,67.3 25.2,67.1 33.4,56.5 29.9,56.3 	"/>
	<path class="st0" d="M65.7,3.7c-1.9,1.5-3.4,3.7-4.6,6.3V0.5h-5.3V11h4.9c-3.5,8.5-3.9,19.8-3.9,19.8h3.1C60.1,7,71.3,3.7,71.3,3.7
		H65.7z"/>
	<rect x="23.5" y="24.8" class="st0" width="1.8" height="1"/>
</g>
</svg>
